<svg viewBox="0 0 400 900" preserveAspectRatio="xMidYMin meet" role="img" aria-label="A single emerald-cut diamond on a fine chain" xmlns="http://www.w3.org/2000/svg"><defs><linearGradient id="em-body" x1="0" y1="0" x2="0" y2="1"><stop offset="0" stop-color="#EDEDED" stop-opacity="0.10"/><stop offset="0.5" stop-color="#EDEDED" stop-opacity="0.03"/><stop offset="1" stop-color="#EDEDED" stop-opacity="0.08"/></linearGradient><linearGradient id="em-table" x1="0" y1="0" x2="1" y2="1"><stop offset="0" stop-color="#EDEDED" stop-opacity="0.14"/><stop offset="0.55" stop-color="#EDEDED" stop-opacity="0"/><stop offset="1" stop-color="#EDEDED" stop-opacity="0.06"/></linearGradient></defs><g fill="none" stroke="#EDEDED" stroke-width="1.1" stroke-linecap="round" stroke-dasharray="2.2 1.6" opacity="0.7"><path d="M92,0 C110,250 170,430 196,529.0"/><path d="M308,0 C290,250 230,430 204,529.0"/></g><rect x="195" y="525.0" width="10" height="18" rx="5" fill="none" stroke="#EDEDED" stroke-width="1.2" opacity="0.75"/><line x1="200" y1="543.0" x2="200" y2="551.0" stroke="#EDEDED" stroke-width="1.2" opacity="0.75"/><polygon points="162.0,551.0 238.0,551.0 264.0,577.0 264.0,703.0 238.0,729.0 162.0,729.0 136.0,703.0 136.0,577.0" fill="url(#em-body)" stroke="#EDEDED" stroke-width="1.3" opacity="0.95"/><g fill="none" stroke="#EDEDED" stroke-width="0.8"><polygon points="166.9,562.0 233.1,562.0 253.0,582.0 253.0,698.0 233.1,718.0 166.9,718.0 147.0,698.0 147.0,582.0" opacity="0.45"/><polygon points="171.9,573.0 228.1,573.0 242.0,586.9 242.0,693.1 228.1,707.0 171.9,707.0 158.0,693.1 158.0,586.9" opacity="0.35"/><polygon points="176.8,584.0 223.2,584.0 231.0,591.9 231.0,688.1 223.2,696.0 176.8,696.0 169.0,688.1 169.0,591.9" opacity="0.25"/></g><polygon points="176.8,584.0 223.2,584.0 231.0,591.9 231.0,688.1 223.2,696.0 176.8,696.0 169.0,688.1 169.0,591.9" fill="url(#em-table)" stroke="#EDEDED" stroke-width="0.9" opacity="0.7"/><g stroke="#EDEDED" stroke-width="0.6" opacity="0.4"><line x1="162.0" y1="551.0" x2="176.8" y2="584.0"/><line x1="238.0" y1="551.0" x2="223.2" y2="584.0"/><line x1="264.0" y1="577.0" x2="231.0" y2="591.9"/><line x1="264.0" y1="703.0" x2="231.0" y2="688.1"/><line x1="238.0" y1="729.0" x2="223.2" y2="696.0"/><line x1="162.0" y1="729.0" x2="176.8" y2="696.0"/><line x1="136.0" y1="703.0" x2="169.0" y2="688.1"/><line x1="136.0" y1="577.0" x2="169.0" y2="591.9"/></g><g transform="translate(182.8,594.0)" fill="#EDEDED" opacity="0.85"><path d="M0,-7 L1.1,-1.1 L7,0 L1.1,1.1 L0,7 L-1.1,1.1 L-7,0 L-1.1,-1.1 Z"/></g></svg>